<svg xmlns="http://www.w3.org/2000/svg" data-name="Layer 1" viewBox="0 0 100 125" x="0px" y="0px"><title>camping icons</title><path d="M55.13,64.51H55a.92.92,0,0,1-.82-1,8.1,8.1,0,0,0-1.2-3.9.93.93,0,0,1,1.59-.95c.17.29,1.68,2.9,1.45,5A.93.93,0,0,1,55.13,64.51Z"/><polygon points="42.49 74.97 42.51 74.98 42.51 74.97 42.49 74.97"/><path d="M67.79,72.47c-.07-3-2.92-4.45-4.25-5,.56-5-1.9-7.69-2-7.83a.93.93,0,0,0-1.6.64A4.54,4.54,0,0,1,59.58,62c-2-10.16-12.06-11.84-12.17-11.86a.93.93,0,0,0-.61,1.72c1.82,1.06,1.92,3.52,1.69,5.42a11,11,0,0,0-3.76-3.1,1,1,0,0,0-1,.16.94.94,0,0,0-.25,1c.44,1.25-.62,3.44-2.82,5.86a10.57,10.57,0,0,0-2.14,3.37A9.61,9.61,0,0,0,38,67.28,4.67,4.67,0,0,0,36.1,68a2.93,2.93,0,0,0-.69.59c-.74.84-3,3.84-1.42,6.68a1.93,1.93,0,0,0,.39.51,2.83,2.83,0,0,0,.07,2.75,5.08,5.08,0,0,0,4.43,2.08,9.7,9.7,0,0,0,2.29-.29,4,4,0,0,0,.48-.2,4.87,4.87,0,0,0,1.07.79,6,6,0,0,0,2.7.68H46c2.76,0,4.08-.7,4.72-1.34A6.59,6.59,0,0,0,55,81.56h.15a3.41,3.41,0,0,0,2.51-1.1,3.45,3.45,0,0,0,.6-1,6,6,0,0,0,2.58.64h.56c4.6,0,5.25-2,5.32-2.3a4.44,4.44,0,0,0-.26-3.08A2.79,2.79,0,0,0,67.79,72.47Zm-31-2.71a1.27,1.27,0,0,1,.26-.22,2.9,2.9,0,0,1,.93-.38A10,10,0,0,0,38.48,71a6.24,6.24,0,0,0-1.94,1.44c-.44.49-.8.94-1.11,1.36C34.94,72.13,36.33,70.32,36.81,69.76Zm5.49,7.06A3,3,0,0,1,41,78.35a1.26,1.26,0,0,1-.33.13l-.07,0c-.87.21-3.47.68-4.63-1a1.49,1.49,0,0,1,.09-1,6.34,6.34,0,0,1,1-1.77c.23-.31.5-.65.83-1a4.51,4.51,0,0,1,1.33-1c.09,0,.18-.11.27-.15a3.1,3.1,0,0,1,1.07-.22,1.93,1.93,0,0,1,.71.16s.1,0,.14,0a1.36,1.36,0,0,1,.48.39,1.85,1.85,0,0,1,.31.61c.05.14.08.3.12.45a6.4,6.4,0,0,1,.17,1h0A4.11,4.11,0,0,1,42.3,76.82Zm3.18,2.87a4.15,4.15,0,0,1-1.89-.46,2.24,2.24,0,0,1-.41-.32,4.85,4.85,0,0,0,1-1.81,6,6,0,0,0,.21-1.83,4.55,4.55,0,0,0,0-.52A3,3,0,0,1,47,74.4a1.84,1.84,0,0,1,.31.16,9.52,9.52,0,0,1,.93.78,6,6,0,0,1,.85,1c0,.21,0,.39,0,.53a1.33,1.33,0,0,0,0,.28,3,3,0,0,0,.07.61,5,5,0,0,0,.39,1C49.37,79.05,48.38,79.78,45.48,79.69Zm10.76-.45a1.47,1.47,0,0,1-1.13.46h0a4.36,4.36,0,0,1-3.67-1.38,2.94,2.94,0,0,1-.52-1,.34.34,0,0,1,0-.1.8.8,0,0,1,0-.23A9.07,9.07,0,0,1,51,76a6.18,6.18,0,0,1,.14-.67,3.29,3.29,0,0,1,2-2.51h.06c.35,0,1.28.4,2.52,2.19l.25.38a3.22,3.22,0,0,0,0,1.45h0a3.93,3.93,0,0,0,.72,1.39A2,2,0,0,1,56.24,79.24Zm.64-5.72a1.71,1.71,0,0,1-.11-.14c-2.23-2.9-3.93-2.44-4.23-2.32a4.76,4.76,0,0,0-3,3,9.89,9.89,0,0,0-1.22-1,2.69,2.69,0,0,0-.81-.41,4.77,4.77,0,0,0-3.49.17l-.1,0a3.44,3.44,0,0,0-1.73-2L42,70.76a3.73,3.73,0,0,0-1.7-.24,8.72,8.72,0,0,1-.33-1.18,7.44,7.44,0,0,1-.13-2,7.69,7.69,0,0,1,.46-2.15A8.56,8.56,0,0,1,42,62.45c1.45-1.59,3-3.69,3.34-5.7A7.17,7.17,0,0,1,48,60.28a.93.93,0,0,0,1.77,0c.07-.23,1.41-4.36.18-7.49A12.85,12.85,0,0,1,58,64.54a.94.94,0,0,0,.55.8.93.93,0,0,0,1-.13,6.37,6.37,0,0,0,1.69-2.35,9.47,9.47,0,0,1,.47,4.4,12.66,12.66,0,0,1-.36,1.93,16.75,16.75,0,0,1-.6,1.82,5.1,5.1,0,0,0-1.8.63A7.08,7.08,0,0,0,56.88,73.52Zm8,3.78c-.13.3-1.1,1.06-4,1A4.29,4.29,0,0,1,59,77.79a2.73,2.73,0,0,1-.42-.32,2.21,2.21,0,0,1-.68-.83c0-.09-.12-.17-.15-.26a1.44,1.44,0,0,1,.14-1,1,1,0,0,1,.06-.16,1.17,1.17,0,0,1,.05-.11l.29-.42a6.44,6.44,0,0,1,.73-.85c.15-.14.31-.27.47-.4a3.22,3.22,0,0,1,1.91-.68,3.46,3.46,0,0,1,.53.09,2.46,2.46,0,0,1,.45.07,1.31,1.31,0,0,1,.31.16,8,8,0,0,1,1.11,1,4.85,4.85,0,0,1,1,1.59A2.64,2.64,0,0,1,64.92,77.3Zm.51-4.14a9.72,9.72,0,0,0-1.68-1.56,3.09,3.09,0,0,0-.81-.41l-.26,0a18.27,18.27,0,0,0,.54-1.76c1,.46,2.67,1.43,2.71,3.11A1.41,1.41,0,0,1,65.43,73.16Z"/><path d="M45.32,63A.93.93,0,0,0,44,63a5.57,5.57,0,0,0-1.37,5.81,3.92,3.92,0,0,0,.28.7.91.91,0,0,0,.81.49h0a1,1,0,0,0,.43-.11.92.92,0,0,0,.39-1.25,3.78,3.78,0,0,1,.76-4.34A.93.93,0,0,0,45.32,63Z"/><path d="M44.34,37.73c-1.54-1.54-3.63-3-4.74-2.34a.58.58,0,0,0-.24.14h0l-4.84,4.84c-.92.93.26,2.88,1.71,4.47L22.88,58.18a.65.65,0,0,0,0,.93.62.62,0,0,0,.46.19.65.65,0,0,0,.46-.19L37.14,45.77c1.22,1.13,2.67,2.12,3.71,2.12a1.15,1.15,0,0,0,.85-.33l4.84-4.84h0a.61.61,0,0,0,.15-.24C47.32,41.37,45.88,39.28,44.34,37.73ZM45.23,41a2.84,2.84,0,0,1,.32.77,8.19,8.19,0,0,1-3.08-2.14c-.24-.24-.44-.47-.64-.7a11.79,11.79,0,0,1-.92-1.2l-.11-.18-.12-.2a3.45,3.45,0,0,1-.35-.79,7.59,7.59,0,0,1,3.09,2.13A10.53,10.53,0,0,1,45.23,41Zm-4.41,5.62a7.33,7.33,0,0,1-3.18-2.15,7.35,7.35,0,0,1-2.16-3.19l3.76-3.76h0l.06-.05a10.4,10.4,0,0,0,2.25,3.08,10.67,10.67,0,0,0,3.09,2.26l0,0Z"/><path d="M54,42.48a.75.75,0,0,0,.15.24h0L59,47.56a1.15,1.15,0,0,0,.85.33c1,0,2.5-1,3.71-2.12L76.89,59.11a.66.66,0,0,0,.93,0,.67.67,0,0,0,0-.93L64.47,44.84c1.46-1.59,2.64-3.54,1.71-4.47l-4.84-4.84h0a.62.62,0,0,0-.23-.14c-1.12-.64-3.2.8-4.75,2.34S53.37,41.37,54,42.48Zm3.28-3.82a7.58,7.58,0,0,1,3.08-2.13,3.45,3.45,0,0,1-.35.79l-.12.2c0,.06-.07.11-.11.18a10.49,10.49,0,0,1-.92,1.2c-.19.23-.4.46-.64.7a8.11,8.11,0,0,1-3.08,2.14,3.71,3.71,0,0,1,.32-.77A10.65,10.65,0,0,1,57.28,38.66Zm-1.17,4.17,0,0a10.77,10.77,0,0,0,3.08-2.26,10.64,10.64,0,0,0,2.26-3.08l.05.05h0l3.76,3.76a7.28,7.28,0,0,1-2.15,3.19,7.28,7.28,0,0,1-3.19,2.15Z"/><path d="M56.64,35.18a.65.65,0,0,1-.44-1.13,3.34,3.34,0,0,0,1.25-2.42,4,4,0,0,0-1.24-2.55,4.94,4.94,0,0,1-1.49-3.74,4.47,4.47,0,0,1,1.52-2.86.64.64,0,0,1,.91.1.65.65,0,0,1-.1.92,3.15,3.15,0,0,0-1,2,3.74,3.74,0,0,0,1.12,2.7,5.17,5.17,0,0,1,1.61,3.44A4.55,4.55,0,0,1,57.09,35,.65.65,0,0,1,56.64,35.18Z"/><path d="M59.49,29.1a.67.67,0,0,1-.4-.14,4.58,4.58,0,0,1-1.73-3.17,4.08,4.08,0,0,1,1.71-3.17A1.74,1.74,0,0,0,59,20.06a.65.65,0,1,1,1-.86,3,3,0,0,1,0,4.41,2.84,2.84,0,0,0-1.26,2.16,3.23,3.23,0,0,0,1.22,2.15.66.66,0,0,1,.11.92A.63.63,0,0,1,59.49,29.1Z"/><path d="M44.06,35.18a.66.66,0,0,1-.48-.21.65.65,0,0,1,0-.92,3.29,3.29,0,0,0,1.24-2.42,4,4,0,0,0-1.23-2.55,4.94,4.94,0,0,1-1.49-3.74,4.52,4.52,0,0,1,1.51-2.86.65.65,0,1,1,.82,1h0a3.13,3.13,0,0,0-1,2,3.72,3.72,0,0,0,1.11,2.7,5.16,5.16,0,0,1,1.62,3.44A4.55,4.55,0,0,1,44.51,35,.65.65,0,0,1,44.06,35.18Z"/><path d="M46.9,29.1a.67.67,0,0,1-.39-.14,4.58,4.58,0,0,1-1.73-3.17,4,4,0,0,1,1.71-3.17,1.74,1.74,0,0,0-.08-2.56.66.66,0,0,1,1-.86,3,3,0,0,1,0,4.41,2.84,2.84,0,0,0-1.26,2.16,3.27,3.27,0,0,0,1.21,2.15.66.66,0,0,1,.12.92A.65.65,0,0,1,46.9,29.1Z"/><text x="0" y="115" fill="#000000" font-size="5px" font-weight="bold" font-family="'Helvetica Neue', Helvetica, Arial-Unicode, Arial, Sans-serif">Created by Caitlin George</text><text x="0" y="120" fill="#000000" font-size="5px" font-weight="bold" font-family="'Helvetica Neue', Helvetica, Arial-Unicode, Arial, Sans-serif">from the Noun Project</text></svg>